<svg id="Layer_1" data-name="Layer 1" xmlns="http://www.w3.org/2000/svg" viewBox="0 0 376 76"><defs><style>.cls-1{fill:#cc3945;}.cls-2{fill:#fff;}</style></defs><title>isolated--white</title><g id="e5d52418-d9fe-48ad-88c6-57f1f8a322b9"><path class="cls-1" d="M73,74.45H12.13c-6.6,0-12-3.52-12-7.85V9.27C.16,5,5.44,1.55,11.93,1.55H73v72.9Zm-68-59V66.6c0,2.6,3.21,4.71,7.18,4.71H68.18V17H11.93A16.2,16.2,0,0,1,5,15.48Zm7-10.79c-3.85,0-7,2.05-7,4.58s3.12,4.57,7,4.58H68.19V4.69Z"/><path class="cls-1" d="M2.56,9.27c0,3.39,4.19,6.14,9.37,6.15H70.58V72.88H12.13c-5.29,0-9.57-2.81-9.57-6.28V9.27"/><path class="cls-1" d="M73,74.45H12.13c-6.6,0-12-3.52-12-7.85V9.27H5c0,2.52,3.13,4.57,7,4.58H73v60.6Zm-68-59V66.6c0,2.6,3.21,4.71,7.18,4.71H68.18V17H11.93A16.2,16.2,0,0,1,5,15.48Z"/></g><path class="cls-2" d="M104.88,11.71v43H91.59v-43Zm21.24,16.35V38H98v-10Zm6.06-16.35v43H118.82v-43Z"/><path class="cls-2" d="M145.93,19.27c-2.61,0-4.48-.46-5.64-1.37a5.31,5.31,0,0,1-1.72-4.43q0-3.13,1.72-4.5c1.16-.91,3-1.37,5.64-1.37s4.49.46,5.64,1.37,1.72,2.41,1.72,4.5a5.31,5.31,0,0,1-1.72,4.43Q149.84,19.27,145.93,19.27Zm6.58,2.86V54.71H139.35V22.13Z"/><path class="cls-2" d="M158.9,54.71V22.13h11.86l.32,6.71a11.47,11.47,0,0,1,4.3-5.47,12.14,12.14,0,0,1,6.84-1.89,11.31,11.31,0,0,1,6.23,1.66A9.17,9.17,0,0,1,192.13,28a11.31,11.31,0,0,1,2.64-3.59,11,11,0,0,1,3.71-2.18,13.46,13.46,0,0,1,4.53-.75,11.92,11.92,0,0,1,5.64,1.27,8.79,8.79,0,0,1,3.68,3.78,13.24,13.24,0,0,1,1.3,6.16v22H200.47V36a5.73,5.73,0,0,0-.85-3.62,3,3,0,0,0-2.41-1,4.19,4.19,0,0,0-2.31.65A3.94,3.94,0,0,0,193.37,34a10,10,0,0,0-.52,3.48v17.2H179.68V36a5.8,5.8,0,0,0-.84-3.62,3,3,0,0,0-2.41-1,4.08,4.08,0,0,0-2.25.65A4.16,4.16,0,0,0,172.61,34a9.69,9.69,0,0,0-.55,3.55V54.71Z"/><path class="cls-2" d="M220,54.71V22.13h11.86l.59,12.58L231,33.28a16.33,16.33,0,0,1,2.15-6.42,11,11,0,0,1,4.2-4,12.57,12.57,0,0,1,6-1.37,12.07,12.07,0,0,1,5.71,1.27,8.79,8.79,0,0,1,3.68,3.78,13.24,13.24,0,0,1,1.3,6.16v22H240.87V36.08c0-1.83-.29-3.08-.88-3.75a3.16,3.16,0,0,0-2.51-1,4.25,4.25,0,0,0-2.25.62,4,4,0,0,0-1.56,2,9.63,9.63,0,0,0-.56,3.58v17.2Z"/><path class="cls-2" d="M278.27,34.19a4.28,4.28,0,0,0-.94-2.9,3.49,3.49,0,0,0-2.77-1.08,4.65,4.65,0,0,0-2.9.92,4.88,4.88,0,0,0-1.53,3.45l-11.15-2a11.41,11.41,0,0,1,4.76-8.08q4.11-3,11.73-3A23,23,0,0,1,284.23,23a11,11,0,0,1,5.31,4.27,12.27,12.27,0,0,1,1.76,6.71V44.87c0,1.74.81,2.61,2.41,2.61a3.48,3.48,0,0,0,1.5-.26l-.65,7.1a12.1,12.1,0,0,1-5.34,1,13.09,13.09,0,0,1-5-.88,7.66,7.66,0,0,1-3.39-2.58,7.29,7.29,0,0,1-1.24-4.43V47l1.3-.2a7,7,0,0,1-1.59,4.57,10.26,10.26,0,0,1-4.17,3,15,15,0,0,1-5.71,1,14.48,14.48,0,0,1-5.8-1,8.09,8.09,0,0,1-3.68-3,8.62,8.62,0,0,1-1.27-4.76,8.15,8.15,0,0,1,2.19-5.87,12,12,0,0,1,6.61-3.12l11.79-2.48-.06,5.54-4.82,1.11a4.51,4.51,0,0,0-2.38,1.07,2.78,2.78,0,0,0-.75,2,2.33,2.33,0,0,0,.85,1.93,3.23,3.23,0,0,0,2.08.68,4.6,4.6,0,0,0,1.56-.26,3.59,3.59,0,0,0,1.28-.78,3.76,3.76,0,0,0,.87-1.3,4.91,4.91,0,0,0,.33-1.89Z"/><path class="cls-2" d="M298.41,68.4V22.13h11.92L311,35.3l-1.5-1.57a16.09,16.09,0,0,1,1.83-6.32,11.68,11.68,0,0,1,4-4.33,10.62,10.62,0,0,1,5.84-1.6,11.77,11.77,0,0,1,6.9,2,12.51,12.51,0,0,1,4.4,5.73A24.07,24.07,0,0,1,334,38.29a24.37,24.37,0,0,1-1.56,9.19A12.82,12.82,0,0,1,328,53.35a11.8,11.8,0,0,1-6.88,2,9.34,9.34,0,0,1-7.26-2.9,14.38,14.38,0,0,1-3.43-7.27l1.18-1.76v25Zm17.65-22.48a4.09,4.09,0,0,0,3.46-1.66c.82-1.11,1.24-3.06,1.24-5.84s-.42-4.73-1.24-5.86a4,4,0,0,0-3.39-1.7,3.73,3.73,0,0,0-2.41.85,5.28,5.28,0,0,0-1.6,2.51,13.49,13.49,0,0,0-.55,4.2,14.83,14.83,0,0,0,.49,4.11,4.82,4.82,0,0,0,1.53,2.54A3.76,3.76,0,0,0,316.06,45.92Z"/><path class="cls-2" d="M339.26,68.4V22.13h11.92l.66,13.17-1.5-1.57a15.92,15.92,0,0,1,1.82-6.32,11.7,11.7,0,0,1,4-4.33,10.58,10.58,0,0,1,5.83-1.6,11.8,11.8,0,0,1,6.91,2,12.51,12.51,0,0,1,4.4,5.73,24.07,24.07,0,0,1,1.53,9.09,24.17,24.17,0,0,1-1.57,9.19,12.82,12.82,0,0,1-4.46,5.87,11.75,11.75,0,0,1-6.87,2,9.34,9.34,0,0,1-7.27-2.9,14.29,14.29,0,0,1-3.42-7.27l1.17-1.76v25Zm17.66-22.48a4.06,4.06,0,0,0,3.45-1.66q1.25-1.66,1.24-5.84t-1.24-5.86a4,4,0,0,0-3.39-1.7,3.75,3.75,0,0,0-2.41.85A5.34,5.34,0,0,0,353,34.22a13.46,13.46,0,0,0-.56,4.2,15.22,15.22,0,0,0,.49,4.11,5,5,0,0,0,1.53,2.54A3.79,3.79,0,0,0,356.92,45.92Z"/></svg>